<svg version="1.1" id="Layer_1" xmlns="http://www.w3.org/2000/svg" xmlns:xlink="http://www.w3.org/1999/xlink" x="0px" y="0px"
	 width="100%" viewBox="0 0 500 500" enable-background="new 0 0 500 500" xml:space="preserve">
<path fill="#000000" opacity="1.000000" stroke="none" 
	d="
M289.000000,501.000000 
	C192.666687,501.000000 96.833382,501.000000 1.000051,501.000000 
	C1.000034,334.333405 1.000034,167.666794 1.000017,1.000141 
	C167.666565,1.000094 334.333130,1.000094 500.999756,1.000047 
	C500.999847,167.666519 500.999847,334.333038 500.999939,500.999786 
	C430.500000,501.000000 360.000000,501.000000 289.000000,501.000000 
M354.138580,238.162384 
	C353.975555,237.998032 353.812531,237.833664 353.714569,236.917297 
	C354.182556,234.983948 354.963562,233.058350 355.011810,231.114578 
	C355.045715,229.750107 354.080994,228.360840 353.562225,226.982651 
	C352.207306,227.642624 350.349274,227.954376 349.601624,229.034637 
	C348.015625,231.326157 346.682129,233.912628 345.823975,236.565430 
	C343.136383,244.873947 340.717499,253.269394 338.205780,261.593750 
	C327.317230,254.844543 317.855225,263.958344 306.455933,264.641602 
	C311.047455,252.111420 315.885345,240.158707 319.774261,227.904816 
	C322.944427,217.915604 327.563416,210.314301 338.983887,208.728897 
	C340.827454,208.472992 342.336853,205.809525 344.000702,204.258957 
	C341.871552,202.800980 339.721130,200.085571 337.617279,200.121216 
	C331.350037,200.227356 324.940277,200.781708 318.881805,202.322937 
	C309.216461,204.781738 299.535797,207.859695 292.167908,215.037659 
	C290.495636,216.666779 289.673187,220.590561 290.363861,222.884903 
	C291.366455,226.215683 294.790894,225.705795 297.582825,224.411880 
	C301.120270,222.772476 304.605377,221.020111 307.895386,219.422180 
	C304.145782,232.094788 299.824127,244.511734 296.931519,257.253113 
	C295.030243,265.627716 292.521210,272.562012 283.732269,275.529327 
	C282.974945,275.785004 282.276886,276.366791 281.684967,276.936096 
	C278.911133,279.603882 274.219574,281.882477 276.671722,286.569366 
	C279.361328,291.710175 283.883759,288.729340 287.726868,287.565643 
	C288.834015,287.230438 289.854767,286.618744 290.951599,286.239136 
	C305.957184,281.045715 320.969238,275.870758 334.988586,271.033264 
	C336.455231,273.473572 337.257935,276.619934 338.841217,277.079956 
	C342.542328,278.155457 342.495239,274.288574 343.487122,271.999969 
	C346.653046,264.695251 349.727081,257.348785 353.022858,250.103195 
	C354.577484,246.685425 356.556671,243.460800 358.343475,240.148651 
	C359.022766,242.731964 358.760071,244.869659 358.554749,247.012863 
	C357.729095,255.632507 356.678558,264.243073 356.294922,272.882935 
	C356.210083,274.794373 358.506500,276.811554 359.706421,278.780060 
	C361.444519,277.583221 363.418640,276.611389 364.843933,275.116302 
	C365.929474,273.977631 366.353851,272.190186 367.011688,270.665131 
	C372.341370,258.309753 377.631714,245.937332 382.994720,233.596466 
	C384.263824,230.676071 385.762299,227.855331 387.155243,224.988754 
	C387.941345,226.650772 388.148987,228.000854 387.909271,229.266205 
	C385.495239,242.008942 382.854431,254.710495 380.583191,267.478027 
	C378.195435,280.900696 376.082550,294.373627 373.985382,307.845703 
	C373.489807,311.029236 374.329742,314.586121 377.908386,314.754456 
	C380.340302,314.868835 383.782257,313.158020 385.181061,311.153076 
	C387.493347,307.838745 389.038818,303.753723 390.003662,299.774323 
	C395.173859,278.450500 400.116699,257.070892 405.034515,235.686737 
	C408.796906,219.326569 412.526367,202.956543 415.992035,186.532166 
	C416.794800,182.727585 417.485107,177.862000 412.523987,176.270691 
	C407.201050,174.563324 405.880920,179.717819 404.173370,183.019211 
	C400.131592,190.833557 396.732452,198.979523 392.715240,206.807541 
	C385.588623,220.694534 378.199585,234.446884 370.907440,248.248749 
	C370.400391,249.208435 369.786774,250.111801 369.222717,251.041367 
	C368.790436,248.535156 369.088379,246.253983 369.317780,243.965927 
	C369.998413,237.177170 370.911987,230.394638 371.145264,223.589462 
	C371.208649,221.740692 369.187897,219.820480 368.123657,217.933044 
	C366.482300,219.231094 364.274536,220.202744 363.303833,221.887238 
	C360.160187,227.342682 357.470520,233.059738 354.138580,238.162384 
M275.971039,196.522079 
	C271.374603,210.006699 266.795807,223.497406 262.156952,236.967422 
	C261.643005,238.459793 261.091309,240.770660 260.039795,241.112991 
	C252.579742,243.541702 244.984848,245.556122 236.602142,247.938675 
	C238.451233,240.262863 240.030701,233.832840 241.545319,227.387573 
	C243.522491,218.973938 245.600891,210.577835 247.245972,202.098557 
	C247.519958,200.686386 245.811493,198.889587 245.019104,197.270523 
	C243.728226,198.098724 242.013763,198.646835 241.240036,199.816986 
	C239.884171,201.867630 238.815887,204.216324 238.132584,206.585922 
	C234.314682,219.825882 230.691040,233.121857 226.877441,246.363098 
	C226.388580,248.060425 225.559784,250.378693 224.236557,250.983841 
	C220.050217,252.898361 215.554474,254.136307 211.347382,255.578018 
	C210.771332,252.419189 211.119705,248.574524 209.371170,246.482117 
	C207.852386,244.664581 203.961197,244.829544 202.058105,244.353439 
	C204.696213,228.571030 207.513275,212.735809 209.803421,196.824753 
	C210.115768,194.654724 208.279724,190.663727 206.575928,190.093674 
	C204.391647,189.362839 200.536316,190.446793 198.819733,192.165665 
	C195.343140,195.646881 192.339630,199.821503 189.990952,204.169312 
	C180.675446,221.413849 171.814621,238.903946 162.507355,256.153046 
	C159.394150,261.922729 155.432663,267.232910 151.897263,272.777557 
	C150.649857,274.733887 149.193588,276.643463 148.401001,278.784760 
	C146.904144,282.828796 144.875504,287.298004 151.598129,288.934143 
	C152.170151,289.073334 152.457870,290.190002 152.983719,290.753662 
	C153.809402,291.638733 154.725403,292.439514 155.603165,293.275970 
	C156.454681,292.348816 157.380737,291.478577 158.141434,290.482056 
	C159.509415,288.690033 160.379776,286.077332 162.162170,285.124146 
	C167.782913,282.118225 173.730103,279.722778 180.509872,276.657532 
	C179.061005,283.181427 177.830063,288.653961 176.638000,294.134949 
	C176.285065,295.757660 175.876953,297.394684 175.782074,299.041748 
	C175.580185,302.546021 176.822250,305.365967 180.481598,306.301392 
	C184.587250,307.350952 187.014999,304.760590 187.999649,301.435944 
	C190.215118,293.955414 192.362747,286.396393 193.659668,278.720917 
	C194.675735,272.707581 196.974442,268.512268 203.520615,266.994446 
	C209.135040,273.136536 215.473358,267.479645 221.912094,267.173340 
	C221.912094,268.004456 221.975815,268.650085 221.902008,269.279572 
	C221.301590,274.400940 220.209229,279.526947 220.293015,284.634674 
	C220.325272,286.600891 223.015717,288.523529 224.495010,290.466003 
	C225.982590,288.979919 228.293579,287.731049 228.803009,285.963135 
	C230.316696,280.709717 231.443588,275.291290 232.104507,269.862213 
	C232.665161,265.256989 234.640747,263.010712 239.272812,262.128906 
	C245.340851,260.973663 251.263794,259.056274 257.729187,257.339233 
	C256.540802,266.227234 255.279236,274.093994 254.525482,282.009064 
	C254.185257,285.581848 254.278824,289.423950 255.293259,292.808929 
	C255.866653,294.722260 258.561859,296.840210 260.580811,297.173645 
	C261.850403,297.383331 264.110138,294.705933 265.069366,292.875092 
	C266.190979,290.734253 266.480072,288.124847 266.959473,285.685120 
	C270.333893,268.513672 273.418854,251.280853 277.094513,234.174713 
	C279.570892,222.650024 282.956451,211.323227 285.725861,199.857330 
	C286.477203,196.746597 286.627106,192.764664 282.739777,192.010132 
	C280.917725,191.656479 278.476685,194.491852 275.971039,196.522079 
M107.487213,210.917679 
	C104.923203,216.318741 101.941994,221.565414 99.875381,227.150528 
	C94.239197,242.382553 88.886253,257.722504 83.660461,273.101044 
	C82.397881,276.816559 82.018707,281.283569 86.983215,282.645325 
	C92.131996,284.057678 93.317673,279.548279 94.564713,275.960419 
	C96.799568,269.530487 98.810951,263.023163 100.971626,256.566864 
	C101.220520,255.823181 101.824951,255.198486 102.521675,254.120911 
	C103.124733,256.681396 103.524605,258.618408 104.039505,260.524353 
	C106.373695,269.164551 114.854630,272.023010 121.345985,265.914246 
	C125.037888,262.439972 127.762444,257.929321 130.862442,253.839752 
	C131.763367,252.651245 132.456497,251.305222 133.949188,248.893494 
	C133.949188,251.761719 134.091461,253.098785 133.927338,254.397110 
	C132.133026,268.591644 130.298645,282.781158 128.458008,296.969788 
	C127.667145,303.066132 126.425751,309.144745 126.238960,315.257385 
	C126.170570,317.495453 128.021591,320.862915 129.950485,321.847900 
	C133.074951,323.443298 135.617340,321.022552 136.833466,317.920563 
	C137.738754,315.611450 138.443268,313.197784 138.977417,310.773438 
	C141.572006,298.997711 143.830917,287.142609 146.666565,275.426483 
	C153.428101,247.489624 160.476379,219.622253 167.316071,191.704086 
	C167.980133,188.993500 168.363434,186.106628 168.227203,183.333527 
	C168.038773,179.497177 165.875870,176.749832 161.967300,175.932373 
	C158.270996,175.159317 155.486481,176.568222 153.742584,180.002563 
	C152.388931,182.668350 150.879471,185.254974 149.524963,187.920334 
	C140.344131,205.986069 131.207443,224.074265 121.993851,242.123215 
	C120.835129,244.393097 119.310173,246.475998 117.954903,248.645538 
	C117.081070,246.414398 117.086647,244.504791 117.275558,242.613495 
	C118.235100,233.007080 119.301598,223.410995 120.204636,213.799454 
	C120.589745,209.700531 121.592743,204.836548 116.315613,203.223969 
	C110.629890,201.486496 109.664368,206.664520 107.487213,210.917679 
z"/>
<path fill="#FAFAFA" opacity="1.000000" stroke="none" 
	d="
M354.605957,238.676025 
	C357.470520,233.059738 360.160187,227.342682 363.303833,221.887238 
	C364.274536,220.202744 366.482300,219.231094 368.123657,217.933044 
	C369.187897,219.820480 371.208649,221.740692 371.145264,223.589462 
	C370.911987,230.394638 369.998413,237.177170 369.317780,243.965927 
	C369.088379,246.253983 368.790436,248.535156 369.222717,251.041367 
	C369.786774,250.111801 370.400391,249.208435 370.907440,248.248749 
	C378.199585,234.446884 385.588623,220.694534 392.715240,206.807541 
	C396.732452,198.979523 400.131592,190.833557 404.173370,183.019211 
	C405.880920,179.717819 407.201050,174.563324 412.523987,176.270691 
	C417.485107,177.862000 416.794800,182.727585 415.992035,186.532166 
	C412.526367,202.956543 408.796906,219.326569 405.034515,235.686737 
	C400.116699,257.070892 395.173859,278.450500 390.003662,299.774323 
	C389.038818,303.753723 387.493347,307.838745 385.181061,311.153076 
	C383.782257,313.158020 380.340302,314.868835 377.908386,314.754456 
	C374.329742,314.586121 373.489807,311.029236 373.985382,307.845703 
	C376.082550,294.373627 378.195435,280.900696 380.583191,267.478027 
	C382.854431,254.710495 385.495239,242.008942 387.909271,229.266205 
	C388.148987,228.000854 387.941345,226.650772 387.155243,224.988754 
	C385.762299,227.855331 384.263824,230.676071 382.994720,233.596466 
	C377.631714,245.937332 372.341370,258.309753 367.011688,270.665131 
	C366.353851,272.190186 365.929474,273.977631 364.843933,275.116302 
	C363.418640,276.611389 361.444519,277.583221 359.706421,278.780029 
	C358.506500,276.811554 356.210083,274.794373 356.294922,272.882935 
	C356.678558,264.243073 357.729095,255.632507 358.554749,247.012863 
	C358.760071,244.869659 359.022766,242.731964 358.343475,240.148651 
	C356.556671,243.460800 354.577484,246.685425 353.022858,250.103195 
	C349.727081,257.348785 346.653046,264.695251 343.487122,271.999969 
	C342.495239,274.288574 342.542328,278.155457 338.841217,277.079956 
	C337.257935,276.619934 336.455231,273.473572 334.988586,271.033264 
	C320.969238,275.870758 305.957184,281.045715 290.951599,286.239136 
	C289.854767,286.618744 288.834015,287.230438 287.726868,287.565643 
	C283.883759,288.729340 279.361328,291.710175 276.671722,286.569366 
	C274.219574,281.882477 278.911133,279.603882 281.684967,276.936096 
	C282.276886,276.366791 282.974945,275.785004 283.732269,275.529327 
	C292.521210,272.562012 295.030243,265.627716 296.931519,257.253113 
	C299.824127,244.511734 304.145782,232.094788 307.895386,219.422180 
	C304.605377,221.020111 301.120270,222.772476 297.582825,224.411880 
	C294.790894,225.705795 291.366455,226.215683 290.363861,222.884903 
	C289.673187,220.590561 290.495636,216.666779 292.167908,215.037659 
	C299.535797,207.859695 309.216461,204.781738 318.881805,202.322937 
	C324.940277,200.781708 331.350037,200.227356 337.617279,200.121216 
	C339.721130,200.085571 341.871552,202.800980 344.000702,204.258957 
	C342.336853,205.809525 340.827454,208.472992 338.983887,208.728897 
	C327.563416,210.314301 322.944427,217.915604 319.774261,227.904816 
	C315.885345,240.158707 311.047455,252.111420 306.455933,264.641602 
	C317.855225,263.958344 327.317230,254.844543 338.205780,261.593750 
	C340.717499,253.269394 343.136383,244.873947 345.823975,236.565430 
	C346.682129,233.912628 348.015625,231.326157 349.601624,229.034637 
	C350.349274,227.954376 352.207306,227.642624 353.562225,226.982651 
	C354.080994,228.360840 355.045715,229.750107 355.011810,231.114578 
	C354.963562,233.058350 354.182556,234.983948 353.454773,237.528809 
	C353.139404,238.729156 353.083771,239.318024 352.938049,240.860809 
	C353.883423,239.622482 354.244720,239.149246 354.605957,238.676025 
z"/>
<path fill="#F9F9F9" opacity="1.000000" stroke="none" 
	d="
M276.143616,196.202026 
	C278.476685,194.491852 280.917725,191.656479 282.739777,192.010132 
	C286.627106,192.764664 286.477203,196.746597 285.725861,199.857330 
	C282.956451,211.323227 279.570892,222.650024 277.094513,234.174713 
	C273.418854,251.280853 270.333893,268.513672 266.959473,285.685120 
	C266.480072,288.124847 266.190979,290.734253 265.069366,292.875092 
	C264.110138,294.705933 261.850403,297.383331 260.580811,297.173645 
	C258.561859,296.840210 255.866653,294.722260 255.293259,292.808929 
	C254.278824,289.423950 254.185257,285.581848 254.525482,282.009064 
	C255.279236,274.093994 256.540802,266.227234 257.729187,257.339233 
	C251.263794,259.056274 245.340851,260.973663 239.272812,262.128906 
	C234.640747,263.010712 232.665161,265.256989 232.104507,269.862213 
	C231.443588,275.291290 230.316696,280.709717 228.803009,285.963135 
	C228.293579,287.731049 225.982590,288.979919 224.495010,290.466003 
	C223.015717,288.523529 220.325272,286.600891 220.293015,284.634674 
	C220.209229,279.526947 221.301590,274.400940 221.902008,269.279572 
	C221.975815,268.650085 221.912094,268.004456 221.912094,267.173340 
	C215.473358,267.479645 209.135040,273.136536 203.520615,266.994446 
	C196.974442,268.512268 194.675735,272.707581 193.659668,278.720917 
	C192.362747,286.396393 190.215118,293.955414 187.999649,301.435944 
	C187.014999,304.760590 184.587250,307.350952 180.481598,306.301392 
	C176.822250,305.365967 175.580185,302.546021 175.782074,299.041748 
	C175.876953,297.394684 176.285065,295.757660 176.638000,294.134949 
	C177.830063,288.653961 179.061005,283.181427 180.509872,276.657532 
	C173.730103,279.722778 167.782913,282.118225 162.162170,285.124146 
	C160.379776,286.077332 159.509415,288.690033 158.141434,290.482056 
	C157.380737,291.478577 156.454681,292.348816 155.603165,293.275970 
	C154.725403,292.439514 153.809402,291.638733 152.983719,290.753662 
	C152.457870,290.190002 152.170151,289.073334 151.598129,288.934143 
	C144.875504,287.298004 146.904144,282.828796 148.401001,278.784760 
	C149.193588,276.643463 150.649857,274.733887 151.897263,272.777557 
	C155.432663,267.232910 159.394150,261.922729 162.507355,256.153046 
	C171.814621,238.903946 180.675446,221.413849 189.990952,204.169312 
	C192.339630,199.821503 195.343140,195.646881 198.819733,192.165665 
	C200.536316,190.446793 204.391647,189.362839 206.575928,190.093674 
	C208.279724,190.663727 210.115768,194.654724 209.803421,196.824753 
	C207.513275,212.735809 204.696213,228.571030 202.058105,244.353439 
	C203.961197,244.829544 207.852386,244.664581 209.371170,246.482117 
	C211.119705,248.574524 210.771332,252.419189 211.347382,255.578018 
	C215.554474,254.136307 220.050217,252.898361 224.236557,250.983841 
	C225.559784,250.378693 226.388580,248.060425 226.877441,246.363098 
	C230.691040,233.121857 234.314682,219.825882 238.132584,206.585922 
	C238.815887,204.216324 239.884171,201.867630 241.240036,199.816986 
	C242.013763,198.646835 243.728226,198.098724 245.019104,197.270523 
	C245.811493,198.889587 247.519958,200.686386 247.245972,202.098557 
	C245.600891,210.577835 243.522491,218.973938 241.545319,227.387573 
	C240.030701,233.832840 238.451233,240.262863 236.602142,247.938675 
	C244.984848,245.556122 252.579742,243.541702 260.039795,241.112991 
	C261.091309,240.770660 261.643005,238.459793 262.156952,236.967422 
	C266.795807,223.497406 271.374603,210.006699 276.143616,196.202026 
M195.019424,223.491241 
	C196.096176,218.506332 197.172928,213.521423 198.249695,208.536514 
	C197.804947,208.394379 197.360214,208.252258 196.915482,208.110123 
	C187.275879,225.511139 177.636261,242.912140 167.996643,260.313171 
	C168.322281,260.634308 168.647919,260.955475 168.973557,261.276611 
	C174.161331,258.543457 179.488235,256.035614 184.465958,252.962219 
	C186.362335,251.791336 188.150894,249.532150 188.792862,247.407623 
	C191.093735,239.792953 192.882858,232.023636 195.019424,223.491241 
z"/>
<path fill="#FBFBFB" opacity="1.000000" stroke="none" 
	d="
M107.667480,210.589264 
	C109.664368,206.664520 110.629890,201.486496 116.315613,203.223969 
	C121.592743,204.836548 120.589745,209.700531 120.204636,213.799454 
	C119.301598,223.410995 118.235100,233.007080 117.275558,242.613495 
	C117.086647,244.504791 117.081070,246.414398 117.954903,248.645538 
	C119.310173,246.475998 120.835129,244.393097 121.993851,242.123215 
	C131.207443,224.074265 140.344131,205.986069 149.524963,187.920334 
	C150.879471,185.254974 152.388931,182.668350 153.742584,180.002563 
	C155.486481,176.568222 158.270996,175.159317 161.967300,175.932373 
	C165.875870,176.749832 168.038773,179.497177 168.227203,183.333527 
	C168.363434,186.106628 167.980133,188.993500 167.316071,191.704086 
	C160.476379,219.622253 153.428101,247.489624 146.666565,275.426483 
	C143.830917,287.142609 141.572006,298.997711 138.977417,310.773438 
	C138.443268,313.197784 137.738754,315.611450 136.833466,317.920563 
	C135.617340,321.022552 133.074951,323.443298 129.950485,321.847900 
	C128.021591,320.862915 126.170570,317.495453 126.238960,315.257385 
	C126.425751,309.144745 127.667145,303.066132 128.458008,296.969788 
	C130.298645,282.781158 132.133026,268.591644 133.927338,254.397110 
	C134.091461,253.098785 133.949188,251.761719 133.949188,248.893494 
	C132.456497,251.305222 131.763367,252.651245 130.862442,253.839752 
	C127.762444,257.929321 125.037888,262.439972 121.345985,265.914246 
	C114.854630,272.023010 106.373695,269.164551 104.039505,260.524353 
	C103.524605,258.618408 103.124733,256.681396 102.521675,254.120911 
	C101.824951,255.198486 101.220520,255.823181 100.971626,256.566864 
	C98.810951,263.023163 96.799568,269.530487 94.564713,275.960419 
	C93.317673,279.548279 92.131996,284.057678 86.983215,282.645325 
	C82.018707,281.283569 82.397881,276.816559 83.660461,273.101044 
	C88.886253,257.722504 94.239197,242.382553 99.875381,227.150528 
	C101.941994,221.565414 104.923203,216.318741 107.667480,210.589264 
z"/>
<path fill="#000000" opacity="1.000000" stroke="none" 
	d="
M354.372284,238.419205 
	C354.244720,239.149246 353.883423,239.622482 352.938049,240.860809 
	C353.083771,239.318024 353.139404,238.729156 353.422241,237.904800 
	C353.812531,237.833664 353.975555,237.998032 354.372284,238.419205 
z"/>
<path fill="#080808" opacity="1.000000" stroke="none" 
	d="
M194.942459,223.902023 
	C192.882858,232.023636 191.093735,239.792953 188.792862,247.407623 
	C188.150894,249.532150 186.362335,251.791336 184.465958,252.962219 
	C179.488235,256.035614 174.161331,258.543457 168.973557,261.276611 
	C168.647919,260.955475 168.322281,260.634308 167.996643,260.313171 
	C177.636261,242.912140 187.275879,225.511139 196.915482,208.110123 
	C197.360214,208.252258 197.804947,208.394379 198.249695,208.536514 
	C197.172928,213.521423 196.096176,218.506332 194.942459,223.902023 
z"/>
</svg>