<svg version="1.1" id="Layer_1" xmlns="http://www.w3.org/2000/svg" xmlns:xlink="http://www.w3.org/1999/xlink" x="0px" y="0px"
	 width="100%" viewBox="0 0 496 496" enable-background="new 0 0 496 496" xml:space="preserve">
<path fill="#000000" opacity="1.000000" stroke="none" 
	d="
M378.185791,315.272400 
	C374.249908,314.071777 373.505005,311.302979 373.667908,308.078583 
	C374.231415,296.921204 376.472504,286.013062 378.662079,275.101257 
	C382.022919,258.352386 384.284271,241.393158 388.187256,224.697495 
	C381.465027,237.246811 376.049988,250.375351 370.509949,263.449005 
	C368.757599,267.584320 366.879944,271.670074 364.935120,275.718719 
	C363.977722,277.711853 362.683319,279.646393 360.010162,279.073029 
	C357.163788,278.462555 355.838959,276.313324 355.801514,273.601410 
	C355.762695,270.789154 356.118866,267.967377 356.370361,265.155884 
	C357.064789,257.392487 357.794739,249.632263 358.594879,240.957825 
	C352.147430,251.825363 346.842224,262.263214 343.399231,273.582886 
	C342.793152,275.575470 342.023193,277.445343 339.619019,277.680481 
	C337.980225,277.840729 336.645966,277.096527 336.048157,275.525116 
	C335.649109,274.476288 335.549805,273.313446 335.225311,271.768066 
	C320.780334,276.482483 306.425690,280.624786 292.501526,286.100739 
	C289.410370,287.316406 286.278107,288.456573 283.097900,289.407928 
	C280.462616,290.196289 278.130188,289.494568 276.567017,287.064148 
	C274.923218,284.508301 275.892365,282.234497 277.584473,280.210571 
	C280.860352,276.292267 285.299255,273.934692 289.671051,271.513397 
	C291.556183,270.469299 293.471832,269.651917 294.001221,267.102661 
	C297.283417,251.296692 301.988159,235.888947 307.146454,220.171021 
	C304.247040,223.179749 300.478424,223.935562 296.890808,225.104919 
	C294.328583,225.940018 291.954773,225.930908 290.173523,223.482391 
	C288.306885,220.916595 288.889771,218.430298 290.540863,216.086746 
	C291.999359,214.016495 294.000031,212.498215 296.161926,211.204498 
	C308.100830,204.060059 321.038940,200.166595 334.914368,199.416733 
	C336.555664,199.328018 338.265045,199.519318 339.865997,199.902176 
	C342.063660,200.427780 343.890076,201.587936 344.212555,204.124802 
	C344.564514,206.893524 342.600372,207.884872 340.539703,208.768524 
	C340.081665,208.964951 339.616577,209.213226 339.134033,209.274384 
	C328.183685,210.661987 323.354858,217.964569 320.321320,227.708374 
	C317.208282,237.707443 313.177368,247.418381 309.693634,257.306641 
	C309.070679,259.074829 307.774689,260.907227 309.051117,263.456573 
	C318.603149,263.039764 327.561401,255.450821 337.839172,260.407196 
	C340.126526,256.362244 340.380920,251.966614 341.582764,247.880997 
	C343.182190,242.443863 344.703186,236.988297 347.380219,231.962967 
	C348.726746,229.435333 349.552460,225.639191 353.577148,226.871780 
	C357.473633,228.065109 355.334106,231.590057 355.307770,234.993729 
	C359.023132,231.051773 360.413055,226.669937 362.457092,222.682861 
	C363.714722,220.229721 364.433350,216.731796 368.236023,217.795486 
	C371.859222,218.808960 371.917572,222.253708 371.686584,225.257675 
	C371.101562,232.865738 370.281464,240.455719 370.098175,248.404678 
	C370.925415,246.789093 371.803802,245.197388 372.571777,243.554123 
	C378.500366,230.868591 385.007568,218.494217 392.365570,206.574219 
	C396.759735,199.455612 399.326324,191.456848 403.188934,184.082336 
	C403.961395,182.607529 404.752869,181.141556 405.577057,179.695175 
	C407.070770,177.073822 408.973663,175.010422 412.358734,175.863937 
	C415.732422,176.714600 416.531616,179.556076 416.633911,182.460342 
	C416.828400,187.980148 415.611420,193.359528 414.356903,198.694183 
	C406.406158,232.503494 398.430908,266.307098 390.409882,300.099792 
	C389.524902,303.828278 388.092407,307.398743 386.213928,310.757477 
	C384.560760,313.713379 382.299652,315.734650 378.185791,315.272400 
z"/>
<path fill="#000000" opacity="1.000000" stroke="none" 
	d="
M206.456573,189.320129 
	C210.327454,191.176529 210.600571,194.313705 210.320358,197.584991 
	C209.225327,210.368668 206.574371,222.889694 203.843216,235.396484 
	C203.210861,238.292221 202.698059,241.214081 202.118561,244.183868 
	C209.403275,244.241409 209.403275,244.241409 212.097778,254.332428 
	C216.457779,254.080795 220.261749,251.869904 224.265427,250.462082 
	C226.394073,249.713562 226.248215,247.206680 226.682449,245.301514 
	C229.864594,231.340408 233.188614,217.411713 238.769180,204.169281 
	C240.028687,201.180542 240.687790,196.070816 245.195206,197.419220 
	C250.176132,198.909271 247.569321,203.695770 246.854645,206.951202 
	C244.395157,218.154663 241.552002,229.273727 238.873093,240.429291 
	C238.450226,242.190231 238.120773,243.973602 237.627396,246.321045 
	C242.231735,246.755600 245.887421,244.241486 249.842941,243.879898 
	C258.729065,243.067612 262.355530,238.167130 263.872009,229.603577 
	C265.843658,218.469849 269.575623,207.680603 275.000702,197.650269 
	C276.645325,194.609589 278.154419,190.031754 282.835754,191.631821 
	C287.553619,193.244370 286.745270,197.838394 285.865936,201.538788 
	C283.521423,211.404938 280.457581,221.110504 278.371124,231.025406 
	C274.528900,249.283585 269.740601,267.356659 267.315399,285.905365 
	C266.994995,288.355835 266.209991,290.760773 265.482025,293.138428 
	C264.763397,295.485626 263.419495,297.599182 260.741943,297.647766 
	C257.736053,297.702423 255.898315,295.654816 254.876312,292.994720 
	C253.399002,289.149445 253.527344,285.165344 254.106155,281.161652 
	C254.961899,275.242462 255.835358,269.324951 256.590424,263.392639 
	C256.772308,261.963501 257.167511,260.408783 255.771667,258.466339 
	C248.886856,259.612274 242.038147,261.985596 235.120087,264.017517 
	C233.456619,264.506104 233.444641,266.300873 233.142258,267.781067 
	C231.911545,273.805664 230.701126,279.836548 229.316223,285.826477 
	C228.745834,288.293457 227.751266,291.004242 224.557648,290.613068 
	C221.280533,290.211639 219.614258,287.663513 219.792709,284.538025 
	C220.094269,279.256134 220.845367,273.999939 221.420502,268.610474 
	C219.052155,267.484253 216.898132,268.755493 214.729507,269.256134 
	C211.268784,270.054993 208.068039,270.565643 204.653702,268.481903 
	C201.696945,266.677460 196.268250,270.110199 195.278641,274.097412 
	C193.275665,282.167328 191.536102,290.304413 189.431198,298.346619 
	C187.789261,304.619995 184.429413,307.641357 180.711624,306.788208 
	C176.327286,305.782135 174.575775,301.337616 176.027237,294.743073 
	C177.164612,289.575439 178.366714,284.422028 179.010071,278.653229 
	C171.870041,282.148529 162.726608,281.600769 158.579788,290.398865 
	C156.730881,294.321625 155.186798,294.430939 152.669754,291.162842 
	C152.368881,290.772156 152.225449,290.220123 151.861450,289.924866 
	C149.893204,288.328186 146.760254,287.908508 146.687958,284.447479 
	C146.614578,280.934387 147.693451,277.602844 149.899063,275.179260 
	C162.175476,261.689728 167.016937,244.110672 175.761749,228.690689 
	C182.249863,217.250000 187.828033,205.283234 195.829666,194.751999 
	C198.359207,191.422775 201.064545,188.069748 206.456573,189.320129 
M178.580841,242.001816 
	C175.465149,247.767853 172.349472,253.533890 169.233795,259.299927 
	C178.511536,255.281219 189.221069,253.394073 190.418091,240.540680 
	C190.918839,235.163589 193.203766,229.975937 194.260666,224.619904 
	C195.094498,220.394318 196.948349,216.280411 195.663513,211.513779 
	C190.091599,221.462662 184.519669,231.411545 178.580841,242.001816 
z"/>
<path fill="#000000" opacity="1.000000" stroke="none" 
	d="
M88.823639,283.167694 
	C83.228882,281.676300 81.856857,279.334229 83.039917,273.451935 
	C84.914291,264.132385 87.952110,255.155563 91.293488,246.273956 
	C96.048157,233.635681 101.900719,221.486893 107.737244,209.331680 
	C109.483078,205.695786 111.110512,201.707901 116.394775,202.880325 
	C119.880219,203.653656 121.437698,207.800201 120.804115,213.379333 
	C119.552582,224.400101 117.849449,235.385864 117.830399,247.487488 
	C122.113319,241.801605 125.040840,236.269333 127.856186,230.722443 
	C136.068558,214.542145 144.022385,198.230591 152.239105,182.052536 
	C155.396729,175.835419 158.472366,174.310104 163.063934,175.891907 
	C167.397064,177.384659 169.445099,181.775711 168.426224,187.936310 
	C166.004700,202.578110 161.040939,216.570084 157.309860,230.877823 
	C150.386841,257.425934 145.589737,284.448547 139.341980,311.146606 
	C138.776764,313.561920 137.968903,315.940063 137.056595,318.249695 
	C135.811020,321.403046 133.437698,323.154510 129.990494,322.336273 
	C126.704918,321.556366 125.501343,318.783264 125.763069,315.802032 
	C126.343277,309.193146 127.380714,302.625916 128.117447,296.028961 
	C129.756134,281.355591 131.360992,266.678833 133.431915,251.867599 
	C129.699997,256.611115 126.671646,261.824585 122.154709,265.818359 
	C117.962555,269.524963 113.328781,270.460358 109.332977,268.261505 
	C106.739647,266.834442 104.989433,264.652435 104.023003,261.881561 
	C103.423424,260.162537 102.986145,258.386841 102.203629,255.702057 
	C98.973450,262.640045 97.380852,269.306763 95.127670,275.723846 
	C94.025429,278.863068 93.111343,282.197021 88.823639,283.167694 
z"/>
</svg>